<svg width="1790" height="958" viewBox="0 0 1790 958" fill="none" xmlns="http://www.w3.org/2000/svg">
<g clip-path="url(#clip0_639_9)">
<path d="M904.891 190.947C942.736 253.04 1037 306.542 1150.51 336.265C1143.88 331.642 1138.56 327.021 1133.92 321.726C1066.87 299.275 1014.43 268.232 989.874 232.561C940.743 159.25 1031.68 95.8395 1192.33 90.5562C1353.65 85.9334 1525.58 141.414 1575.38 214.723C1602.59 255.683 1586.65 293.988 1538.86 320.413L1536.87 328.336C1615.22 293.328 1646.4 235.204 1607.9 171.139C1547.49 72.0659 1341.04 -5.22273 1147.2 0.724922C954.014 6.01173 845.149 91.8706 904.891 190.947Z" fill="url(#paint0_linear_639_9)"/>
<path d="M1187.03 294.653C1205.61 323.052 1250.75 346.825 1303.87 358.714C1303.2 357.399 1302.54 356.074 1302.54 354.756C1267.35 345.511 1238.81 330.318 1226.18 312.482C1202.95 280.121 1243.46 250.396 1315.81 246.437C1388.17 242.465 1466.5 266.247 1489.73 298.611C1504.34 319.09 1493.06 338.245 1465.18 350.798V353.437C1506.34 337.581 1523.6 309.181 1503.67 278.795C1475.79 234.543 1381.53 202.18 1294.56 206.144C1207.6 210.763 1159.15 250.396 1187.03 294.653Z" fill="url(#paint1_linear_639_9)"/>
<path d="M1395.5 335.602C1408.76 335.602 1419.4 340.22 1428.67 348.804C1437.97 358.059 1441.96 368.619 1441.96 381.843C1441.96 394.382 1437.31 405.617 1428 414.858C1418.73 424.107 1408.09 428.729 1395.5 428.729C1382.88 428.729 1371.59 424.107 1362.3 414.858C1353.66 405.617 1349.01 394.382 1349.01 381.843C1349.01 368.619 1353.66 358.059 1362.3 349.465C1371.59 340.22 1382.21 335.602 1395.5 335.602Z" fill="url(#paint2_linear_639_9)"/>
<path fill-rule="evenodd" clip-rule="evenodd" d="M492.82 501.563C461.921 467.482 424.089 450.444 379.3 450.444C337.269 450.893 301.864 464.744 273.109 491.995C240.369 523.206 223.997 560.694 223.997 604.415C223.997 629.717 229.961 653.565 241.902 675.983C254.94 700.616 273.486 720.274 297.581 735.018C322.54 750.156 349.713 757.756 379.099 757.756C408.043 757.756 434.659 750.285 458.969 735.34C482.165 721.273 500.384 702.14 513.653 677.952C526.461 654.677 532.871 630.825 532.871 606.406C532.871 565.525 519.513 530.589 492.82 501.563ZM324.703 556.893C339.486 539.443 357.58 530.715 379.012 530.715C396.013 531.164 411.014 536.914 424.052 547.953C441.268 562.751 449.891 581.735 449.891 604.915C449.891 622.837 443.699 639.051 431.345 653.637C417.658 669.549 400.209 677.485 379.012 677.485C360.249 677.485 344.005 670.997 330.321 657.934C315.519 643.816 308.131 625.902 308.131 604.255C308.131 585.497 313.643 569.702 324.703 556.893Z" fill="#525252"/>
<path d="M163.949 749.729H188.148V670.608H166.593C145.559 670.608 129.248 667.557 117.633 661.38C107.563 655.898 99.5139 648.033 93.4794 637.815C87.4329 627.605 84.4257 616.565 84.4257 604.669C84.4257 593.024 87.3751 582.163 93.3022 572.051C99.2253 561.948 107.224 554.134 117.286 548.632C128.924 542.04 145.47 538.743 166.936 538.743H188.148V459.622H163.284C142.426 459.622 126.798 460.621 116.389 462.59C85.7732 468.524 59.4802 483.464 37.5484 507.422C12.697 534.459 0.293213 566.874 0.293213 604.669C0.293213 631.703 6.93865 656.541 20.2461 679.171C33.1002 700.74 50.7283 717.871 73.1338 730.629C86.8913 738.316 99.6953 743.424 111.562 745.948C123.411 748.478 140.878 749.729 163.949 749.729Z" fill="#525252"/>
<path d="M756.047 749.728H839.029V596.639C839.029 569.754 835.288 547.11 827.79 528.688C820.301 510.27 808.179 494.126 791.434 480.227C767.41 460.368 739.965 450.444 709.119 450.444C687.963 450.444 667.919 455.406 648.971 465.337C631.111 474.831 616.123 487.733 604.01 504.035C594.535 517.043 587.927 530.609 584.18 544.724C580.437 558.845 578.562 577.13 578.562 599.636V749.728H661.544V596.301L661.547 594.424C661.549 593.322 661.553 592.25 661.563 591.202L661.59 588.243C661.636 584.247 661.725 580.725 661.853 577.678C662.043 573.116 662.322 569.616 662.696 567.176C663.451 562.086 665.161 557.019 667.829 551.927C671.79 545.319 677.73 539.745 685.655 535.212C693.578 530.695 701.52 528.417 709.462 528.417C717.166 528.417 724.873 530.641 732.582 535.05C740.294 539.474 745.911 545.104 749.438 551.945C753.833 559.899 756.047 574.469 756.047 595.658V749.728Z" fill="#525252"/>
<path d="M1067.78 541.878V466.657C1040.14 455.854 1016.26 450.444 996.148 450.444C966.955 450.444 941.982 457.936 921.198 472.914C895.99 490.975 883.377 515.985 883.377 547.915C883.377 574.578 892.258 596.048 910.05 612.357C921.02 622.494 938.356 630.63 962.076 636.791C978.746 640.988 989.405 644.591 994.016 647.564C998.627 650.514 1000.94 655.216 1000.94 661.595C1000.94 675.243 988.585 682.074 963.897 682.074C951.756 682.074 940.355 680.279 929.663 676.66C918.962 673.02 904.707 666.146 886.842 656.021V738.191C913.611 750.463 942.178 756.61 972.5 756.61C1004.38 756.61 1030.16 749.046 1049.86 733.87C1073.33 715.829 1085.07 691.573 1085.07 660.982C1085.07 632.421 1075.53 609.22 1056.43 591.407C1049.99 585.497 1042.82 580.711 1034.93 577.074C1027.05 573.469 1015.01 569.215 998.813 564.377C994.22 563.06 990.186 561.762 986.715 560.488C983.535 559.324 980.827 558.18 978.583 557.053C976.737 556.133 975.208 555.226 973.996 554.328C969.671 551.14 967.515 547.141 967.515 542.302C967.515 529.996 979.095 523.833 1002.27 523.833C1023.42 523.833 1045.27 529.852 1067.78 541.878Z" fill="#525252"/>
<path d="M1280.52 749.729H1304.72V670.608H1283.17C1262.14 670.608 1245.82 667.557 1234.2 661.38C1224.14 655.898 1216.1 648.033 1210.06 637.815C1204 627.605 1200.99 616.565 1200.99 604.669C1200.99 593.024 1203.95 582.163 1209.88 572.051C1215.8 561.948 1223.8 554.134 1233.86 548.632C1245.5 542.04 1262.05 538.743 1283.51 538.743H1304.72V459.622H1279.85C1259.01 459.622 1243.37 460.621 1232.96 462.59C1202.35 468.524 1176.05 483.464 1154.12 507.422C1129.27 534.459 1116.87 566.874 1116.87 604.669C1116.87 631.703 1123.51 656.541 1136.82 679.171C1149.68 700.74 1167.31 717.871 1189.71 730.629C1203.47 738.316 1216.27 743.424 1228.14 745.948C1239.99 748.478 1257.45 749.729 1280.52 749.729Z" fill="#525252"/>
<path d="M1439.96 459.116H1356.31V749.726H1439.96V459.116Z" fill="#525252"/>
<path fill-rule="evenodd" clip-rule="evenodd" d="M1789.23 749.728H1706.25V725.968C1679.89 744.119 1653.97 753.169 1628.5 753.169C1605.68 753.169 1583.43 746.719 1561.71 733.765C1539.99 721.024 1522.62 704.111 1509.55 683.039C1494.71 658.692 1487.29 632.781 1487.29 605.334C1487.29 563.412 1502.54 527.74 1533.08 498.32C1562.27 470.226 1597.22 456.181 1637.94 456.181C1671.78 456.181 1702.2 466.39 1729.18 486.778C1750.42 502.583 1765.74 521.18 1775.14 542.577C1784.54 563.971 1789.23 590.568 1789.23 622.372V749.728ZM1637.69 536.448C1616.21 536.448 1598.83 544.943 1585.54 561.892C1575.34 574.665 1570.26 589.08 1570.26 605.172C1570.26 625.437 1577.55 642.495 1592.18 656.359C1605.23 668.94 1620.74 675.193 1638.68 675.193C1659.92 675.193 1676.98 666.714 1689.83 649.751C1700.01 636.329 1705.11 621.919 1705.11 606.48C1705.11 584.923 1696.68 566.853 1679.86 552.304C1668.13 542.183 1654.08 536.896 1637.69 536.448Z" fill="#525252"/>
<path d="M1716.46 955H1692.7V829.36H1749.4C1755.16 829.36 1760.32 830.26 1764.88 832.06C1769.44 833.86 1773.28 836.5 1776.4 839.98C1779.64 843.34 1782.1 847.42 1783.78 852.22C1785.58 857.02 1786.48 862.36 1786.48 868.24C1786.48 876.88 1784.5 884.32 1780.54 890.56C1776.7 896.8 1770.88 901.24 1763.08 903.88L1788.82 955H1762.36L1738.96 906.58H1716.46V955ZM1747.06 886.6C1751.62 886.6 1755.22 885.4 1757.86 883C1760.5 880.48 1761.82 876.94 1761.82 872.38V864.1C1761.82 859.54 1760.5 856.06 1757.86 853.66C1755.22 851.26 1751.62 850.06 1747.06 850.06H1716.46V886.6H1747.06Z" fill="#238DD8"/>
<path d="M1584.77 955V829.36H1667.57V850.42H1608.53V880.84H1660.73V901.9H1608.53V933.94H1667.57V955H1584.77Z" fill="#238DD8"/>
<path d="M1513.79 957.16C1502.99 957.16 1493.81 955.24 1486.25 951.4C1478.81 947.56 1472.39 942.52 1466.99 936.28L1483.01 920.8C1487.33 925.84 1492.13 929.68 1497.41 932.32C1502.81 934.96 1508.75 936.28 1515.23 936.28C1522.55 936.28 1528.07 934.72 1531.79 931.6C1535.51 928.36 1537.37 924.04 1537.37 918.64C1537.37 914.44 1536.17 911.02 1533.77 908.38C1531.37 905.74 1526.87 903.82 1520.27 902.62L1508.39 900.82C1483.31 896.86 1470.77 884.68 1470.77 864.28C1470.77 858.64 1471.79 853.54 1473.83 848.98C1475.99 844.42 1479.05 840.52 1483.01 837.28C1486.97 834.04 1491.71 831.58 1497.23 829.9C1502.87 828.1 1509.23 827.2 1516.31 827.2C1525.79 827.2 1534.07 828.76 1541.15 831.88C1548.23 835 1554.29 839.62 1559.33 845.74L1543.13 861.04C1540.01 857.2 1536.23 854.08 1531.79 851.68C1527.35 849.28 1521.77 848.08 1515.05 848.08C1508.21 848.08 1503.05 849.4 1499.57 852.04C1496.21 854.56 1494.53 858.16 1494.53 862.84C1494.53 867.64 1495.91 871.18 1498.67 873.46C1501.43 875.74 1505.87 877.42 1511.99 878.5L1523.69 880.66C1536.41 882.94 1545.77 887.02 1551.77 892.9C1557.89 898.66 1560.95 906.76 1560.95 917.2C1560.95 923.2 1559.87 928.66 1557.71 933.58C1555.67 938.38 1552.61 942.58 1548.53 946.18C1544.57 949.66 1539.65 952.36 1533.77 954.28C1528.01 956.2 1521.35 957.16 1513.79 957.16Z" fill="#238DD8"/>
<path d="M1393.4 955V935.92H1409.96V848.44H1393.4V829.36H1450.46V848.44H1433.72V935.92H1450.46V955H1393.4Z" fill="#238DD8"/>
<path d="M1304.75 955V829.36H1328.51V933.94H1378.01V955H1304.75Z" fill="#238DD8"/>
<path d="M1261.58 955L1251.5 922.96H1206.86L1196.96 955H1172.84L1214.96 829.36H1244.48L1286.24 955H1261.58ZM1229.54 850.96H1228.64L1212.62 902.62H1245.74L1229.54 850.96Z" fill="#238DD8"/>
<path d="M1085.91 829.36V906.58C1085.91 916.42 1087.77 923.8 1091.49 928.72C1095.33 933.64 1101.75 936.1 1110.75 936.1C1119.75 936.1 1126.11 933.64 1129.83 928.72C1133.67 923.8 1135.59 916.42 1135.59 906.58V829.36H1158.99V903.52C1158.99 912.76 1158.09 920.74 1156.29 927.46C1154.61 934.18 1151.85 939.76 1148.01 944.2C1144.17 948.64 1139.13 951.94 1132.89 954.1C1126.77 956.14 1119.33 957.16 1110.57 957.16C1101.69 957.16 1094.19 956.14 1088.07 954.1C1082.07 951.94 1077.15 948.64 1073.31 944.2C1069.47 939.76 1066.71 934.18 1065.03 927.46C1063.35 920.74 1062.51 912.76 1062.51 903.52V829.36H1085.91Z" fill="#238DD8"/>
<path d="M992.427 957.16C981.627 957.16 972.447 955.24 964.887 951.4C957.447 947.56 951.027 942.52 945.627 936.28L961.647 920.8C965.967 925.84 970.767 929.68 976.047 932.32C981.447 934.96 987.387 936.28 993.867 936.28C1001.19 936.28 1006.71 934.72 1010.43 931.6C1014.15 928.36 1016.01 924.04 1016.01 918.64C1016.01 914.44 1014.81 911.02 1012.41 908.38C1010.01 905.74 1005.51 903.82 998.907 902.62L987.027 900.82C961.947 896.86 949.407 884.68 949.407 864.28C949.407 858.64 950.427 853.54 952.467 848.98C954.627 844.42 957.687 840.52 961.647 837.28C965.607 834.04 970.347 831.58 975.867 829.9C981.507 828.1 987.867 827.2 994.947 827.2C1004.43 827.2 1012.71 828.76 1019.79 831.88C1026.87 835 1032.93 839.62 1037.97 845.74L1021.77 861.04C1018.65 857.2 1014.87 854.08 1010.43 851.68C1005.99 849.28 1000.41 848.08 993.687 848.08C986.847 848.08 981.687 849.4 978.207 852.04C974.847 854.56 973.167 858.16 973.167 862.84C973.167 867.64 974.547 871.18 977.307 873.46C980.067 875.74 984.507 877.42 990.627 878.5L1002.33 880.66C1015.05 882.94 1024.41 887.02 1030.41 892.9C1036.53 898.66 1039.59 906.76 1039.59 917.2C1039.59 923.2 1038.51 928.66 1036.35 933.58C1034.31 938.38 1031.25 942.58 1027.17 946.18C1023.21 949.66 1018.29 952.36 1012.41 954.28C1006.65 956.2 999.987 957.16 992.427 957.16Z" fill="#238DD8"/>
<path d="M872.034 955V935.92H888.594V848.44H872.034V829.36H929.094V848.44H912.354V935.92H929.094V955H872.034Z" fill="#238DD8"/>
<path d="M791.629 955L750.589 829.36H774.889L794.149 890.56L805.309 932.32H805.849L816.829 890.56L836.089 829.36H859.669L818.629 955H791.629Z" fill="#238DD8"/>
<path d="M626.555 890.56L613.595 864.46H613.055V955H590.555V829.36H616.655L654.455 893.8L667.415 919.9H667.955V829.36H690.455V955H664.355L626.555 890.56Z" fill="#238DD8"/>
<path d="M511.73 957.16C503.45 957.16 495.95 955.78 489.23 953.02C482.51 950.26 476.75 946.12 471.95 940.6C467.27 935.08 463.61 928.3 460.97 920.26C458.33 912.22 457.01 902.86 457.01 892.18C457.01 881.62 458.33 872.32 460.97 864.28C463.61 856.12 467.27 849.28 471.95 843.76C476.75 838.24 482.51 834.1 489.23 831.34C495.95 828.58 503.45 827.2 511.73 827.2C520.01 827.2 527.51 828.58 534.23 831.34C540.95 834.1 546.71 838.24 551.51 843.76C556.31 849.28 559.97 856.12 562.49 864.28C565.13 872.32 566.45 881.62 566.45 892.18C566.45 902.86 565.13 912.22 562.49 920.26C559.97 928.3 556.31 935.08 551.51 940.6C546.71 946.12 540.95 950.26 534.23 953.02C527.51 955.78 520.01 957.16 511.73 957.16ZM511.73 936.1C520.73 936.1 527.87 933.1 533.15 927.1C538.55 921.1 541.25 912.7 541.25 901.9V882.46C541.25 871.66 538.55 863.26 533.15 857.26C527.87 851.26 520.73 848.26 511.73 848.26C502.73 848.26 495.53 851.26 490.13 857.26C484.85 863.26 482.21 871.66 482.21 882.46V901.9C482.21 912.7 484.85 921.1 490.13 927.1C495.53 933.1 502.73 936.1 511.73 936.1Z" fill="#238DD8"/>
<path d="M391.431 957.16C380.631 957.16 371.451 955.24 363.891 951.4C356.451 947.56 350.031 942.52 344.631 936.28L360.651 920.8C364.971 925.84 369.771 929.68 375.051 932.32C380.451 934.96 386.391 936.28 392.871 936.28C400.191 936.28 405.711 934.72 409.431 931.6C413.151 928.36 415.011 924.04 415.011 918.64C415.011 914.44 413.811 911.02 411.411 908.38C409.011 905.74 404.511 903.82 397.911 902.62L386.031 900.82C360.951 896.86 348.411 884.68 348.411 864.28C348.411 858.64 349.431 853.54 351.471 848.98C353.631 844.42 356.691 840.52 360.651 837.28C364.611 834.04 369.351 831.58 374.871 829.9C380.511 828.1 386.871 827.2 393.951 827.2C403.431 827.2 411.711 828.76 418.791 831.88C425.871 835 431.931 839.62 436.971 845.74L420.771 861.04C417.651 857.2 413.871 854.08 409.431 851.68C404.991 849.28 399.411 848.08 392.691 848.08C385.851 848.08 380.691 849.4 377.211 852.04C373.851 854.56 372.171 858.16 372.171 862.84C372.171 867.64 373.551 871.18 376.311 873.46C379.071 875.74 383.511 877.42 389.631 878.5L401.331 880.66C414.051 882.94 423.411 887.02 429.411 892.9C435.531 898.66 438.591 906.76 438.591 917.2C438.591 923.2 437.511 928.66 435.351 933.58C433.311 938.38 430.251 942.58 426.171 946.18C422.211 949.66 417.291 952.36 411.411 954.28C405.651 956.2 398.991 957.16 391.431 957.16Z" fill="#238DD8"/>
<path d="M323.585 829.36V919.72C323.585 925.36 322.625 930.46 320.705 935.02C318.905 939.58 316.265 943.48 312.785 946.72C309.425 949.96 305.285 952.48 300.365 954.28C295.445 956.08 289.925 956.98 283.805 956.98C272.165 956.98 263.105 953.98 256.625 947.98C250.145 941.86 246.005 933.76 244.205 923.68L266.165 919.18C267.245 924.58 269.165 928.78 271.925 931.78C274.805 934.66 278.705 936.1 283.625 936.1C288.305 936.1 292.145 934.66 295.145 931.78C298.265 928.78 299.825 924.22 299.825 918.1V848.8H260.225V829.36H323.585Z" fill="#238DD8"/>
</g>
<defs>
<linearGradient id="paint0_linear_639_9" x1="1556.96" y1="445.421" x2="947.487" y2="272.859" gradientUnits="userSpaceOnUse">
<stop offset="0.171272" stop-color="#05419B"/>
<stop offset="0.624405" stop-color="#055FBC"/>
<stop offset="1" stop-color="#048BEC"/>
</linearGradient>
<linearGradient id="paint1_linear_639_9" x1="1481.47" y1="408.407" x2="1205.55" y2="330.792" gradientUnits="userSpaceOnUse">
<stop offset="0.171272" stop-color="#05419B"/>
<stop offset="0.624405" stop-color="#055FBC"/>
<stop offset="1" stop-color="#048BEC"/>
</linearGradient>
<linearGradient id="paint2_linear_639_9" x1="1433.45" y1="458.997" x2="1351.65" y2="448.448" gradientUnits="userSpaceOnUse">
<stop offset="0.171272" stop-color="#05419B"/>
<stop offset="0.624405" stop-color="#055FBC"/>
<stop offset="1" stop-color="#048BEC"/>
</linearGradient>
<clipPath id="clip0_639_9">
<rect width="1790" height="958" fill="white"/>
</clipPath>
</defs>
</svg>
